<?xml version="1.0" encoding="iso-8859-1"?>
<!-- Uploaded to: SVG Repo, www.svgrepo.com, Generator: SVG Repo Mixer Tools -->
<svg version="1.1" id="Layer_1" xmlns="http://www.w3.org/2000/svg" xmlns:xlink="http://www.w3.org/1999/xlink" 
	 viewBox="0 0 512 512" xml:space="preserve">
<path style="fill:#FFEFCA;" d="M474.401,180.55v235.724c0,7.265-5.944,13.209-13.209,13.209H53.011
	c-7.265,0-13.209-5.944-13.209-13.209V180.55H474.401z"/>
<path style="fill:#A0758E;" d="M504.845,166.696c0,18.485-15.123,33.609-33.609,33.609H42.966c-18.485,0-33.61-15.123-33.61-33.609
	l0,0c0-18.485,15.123-33.609,33.609-33.609h428.271C489.722,133.087,504.845,148.211,504.845,166.696"/>
<polygon style="fill:#FFFFFF;" points="119.106,373.149 205.528,285.447 254.501,334.42 322.999,265.921 430.227,373.149 "/>
<path style="fill:#826075;" d="M498.369,178.765c-6.128,8.371-16.023,13.834-27.132,13.834H42.966
	c-10.254,0-19.473-4.653-25.65-11.952L498.369,178.765"/>
<path style="fill:#D3AEC3;" d="M498.237,152.246l-481.461-1.048c6.173-7.675,15.634-12.607,26.191-12.607h428.271
	C482.266,138.591,492.099,143.976,498.237,152.246"/>
<rect x="396.496" y="137.089" style="fill:#FFDFA1;" width="66.739" height="24.415"/>
<circle style="fill:#6BE8C7;" cx="256.897" cy="62.886" r="21.427"/>
<g>
	<rect x="208.111" y="436.64" style="fill:#A0758E;" width="1.101" height="0.037"/>
	<rect x="320.4" y="436.64" style="fill:#A0758E;" width="1.147" height="0.037"/>
</g>
<path d="M247.744,86.253v19.521c0,4.559,3.696,8.256,8.256,8.256c4.559,0,8.256-3.696,8.256-8.256V86.253
	c10.226-3.454,17.612-13.132,17.612-24.51c0-14.264-11.604-25.868-25.868-25.868s-25.868,11.604-25.868,25.868
	C230.131,73.121,237.518,82.799,247.744,86.253z M255.999,52.387c5.159,0,9.357,4.197,9.357,9.357s-4.197,9.357-9.357,9.357
	c-5.159,0-9.356-4.197-9.356-9.357S250.84,52.387,255.999,52.387z"/>
<path d="M473.299,225.721c-4.56,0-8.256,3.696-8.256,8.256v181.198c0,2.685-2.269,4.953-4.953,4.953H51.91
	c-2.685,0-4.953-2.269-4.953-4.953V233.977c0-4.559-3.696-8.256-8.256-8.256s-8.256,3.696-8.256,8.256v181.198
	c0,11.835,9.629,21.465,21.465,21.465h139.696v31.229c0,4.559,3.696,8.256,8.256,8.256H312.14c4.56,0,8.256-3.696,8.256-8.256
	v-31.191v-0.037h1.147H460.09c11.835,0,21.465-9.629,21.465-21.465V233.977C481.555,229.418,477.86,225.721,473.299,225.721z
	 M208.116,459.612v-22.936v-0.037h1.101h94.666v22.973H208.116z"/>
<path d="M470.136,123.731H41.864C18.78,123.731,0,142.511,0,165.595s18.78,41.864,41.864,41.864h428.271
	c23.084,0,41.864-18.78,41.864-41.864S493.22,123.731,470.136,123.731z M403.653,140.242h50.229v11.9h-50.229V140.242z
	 M94.908,140.242v50.706H69.949v-50.706H94.908z M16.511,165.595c0-13.98,11.373-25.353,25.353-25.353h11.573v50.706H41.864
	C27.885,190.948,16.511,179.575,16.511,165.595z M470.136,190.948H111.419v-50.706H387.14v20.156c0,4.559,3.695,8.256,8.256,8.256
	h66.741c4.56,0,8.256-3.696,8.256-8.256v-20.15c13.862,0.139,25.096,11.452,25.096,25.346
	C495.489,179.575,484.115,190.948,470.136,190.948z"/>
<path d="M112.211,377.93c1.608,1.584,3.702,2.375,5.794,2.375c2.133,0,4.265-0.822,5.881-2.461l80.585-81.778l43.092,43.092
	c3.224,3.224,8.451,3.224,11.676,0l62.66-62.66l101.389,101.39c3.225,3.224,8.452,3.224,11.676,0c3.224-3.224,3.224-8.452,0-11.675
	L327.736,258.985c-3.225-3.224-8.452-3.224-11.676,0l-62.66,62.66l-43.136-43.136c-1.549-1.549-3.648-2.418-5.837-2.418
	c-0.01,0-0.021,0-0.031,0c-2.2,0.008-4.306,0.894-5.849,2.461l-86.422,87.702C108.925,369.502,108.964,374.73,112.211,377.93z"/>
<path d="M94.785,255.374h40.986c4.559,0,8.256-3.696,8.256-8.256c0-4.559-3.696-8.256-8.256-8.256H94.785
	c-4.559,0-8.256,3.696-8.256,8.256C86.529,251.677,90.225,255.374,94.785,255.374z"/>
<path d="M94.785,284.65h40.986c4.559,0,8.256-3.696,8.256-8.256c0-4.559-3.696-8.256-8.256-8.256H94.785
	c-4.559,0-8.256,3.696-8.256,8.256C86.529,280.953,90.225,284.65,94.785,284.65z"/>
</svg>